# xmcd CD database file
#
# Track frame offsets:
#	150
#	2969
#	19025
#	44916
#	72623
#	86489
#	105957
#	127244
#	146307
#	166695
#	171634
#	189415
#	204772
#	210936
#	230108
#
# Disc length: 3101 seconds
#
# Revision: 0
# Processed by: cddbd v1.5.2PL0 Copyright (c) Steve Scherf et al.
# Submitted via: CDex 1.51
#
DISCID=d00c1b0f
DTITLE=Jaspects - Broadcasting the Definition
DYEAR=2006
DGENRE=Jazz
TTITLE0=Intro
TTITLE1=2 Kool 4 Earth
TTITLE2=A Chance 2 Shine
TTITLE3=Next Stop, MLK
TTITLE4=Let's Just Keep In Touch (feat. Scar)
TTITLE5=Peachtree Blues (feat. Janelle Monae)
TTITLE6=One Sixth
TTITLE7=She Is...? (feat. DJ)
TTITLE8=My Sincerity ((feat. Promise)
TTITLE9=Throw yo J's up (interlude) (feat. Iyana)
TTITLE10=Music Was My First Love (feat. Busbee "The Truth" Jones)
TTITLE11=Walking Bayou (Under The Pale Moonlight)
TTITLE12=Interlude
TTITLE13=That's All I Wanna Say (feat. Terrence Cotton)
TTITLE14=Outro
EXTD=YEAR: 2006
EXTT0=
EXTT1=
EXTT2=
EXTT3=
EXTT4=
EXTT5=
EXTT6=
EXTT7=
EXTT8=
EXTT9=
EXTT10=
EXTT11=
EXTT12=
EXTT13=
EXTT14=
PLAYORDER=
